<?xml version="1.0" encoding="UTF-8"?>
<!-- Generator: Adobe Illustrator 21.0.0, SVG Export Plug-In . SVG Version: 6.00 Build 0)  -->
<svg xmlns="http://www.w3.org/2000/svg" xmlns:xlink="http://www.w3.org/1999/xlink" version="1.1" id="Ebene_1" x="0px" y="0px" viewBox="0 0 105 55" style="enable-background:new 0 0 105 55;" xml:space="preserve">
<style type="text/css">
	.st0{fill:#E2001A;}
	.st1{fill:#FFFFFF;}
</style>
<g>
	<path class="st0" d="M101.2,23.4L91,47l0,0c-0.5,1.2-1.8,2.1-3.2,2.1l0,0H17.1l0,0c-1.4,0-2.7-0.9-3.2-2.1l0,0l-10-23.6l0,0   c-0.2-0.4-0.3-0.9-0.3-1.3c0-1.1,0.5-2.1,1.3-2.7l0,0c3.9-3,18.5-12.7,45.9-13.5c1,0,1.9,0,2.9,0c26.2,0,42.3,10.5,46.4,13.6l0,0   c0.8,0.6,1.3,1.6,1.3,2.7C101.5,22.5,101.2,23.4,101.2,23.4z"></path>
	<g>
		<g>
			<path class="st1" d="M66.6,43.3h-6.8l-0.1-0.2L53,31.4l-3.1,3.7v8.2h-5.8V15.9h5.8V27l9-11.1H66l-9.2,11L66.6,43.3L66.6,43.3z"></path>
		</g>
	</g>
	<g>
		<g>
			<path class="st1" d="M77.2,43.6c-4.5,0-7.5-1.1-10-3.6L67,39.8l3.8-3.8l0.2,0.2c1.5,1.5,3.5,2.2,6.3,2.2c2,0,4.4-0.5,4.4-3     c0-0.9-0.3-1.6-0.7-2s-0.9-0.7-2.2-0.9L75.6,32c-2.4-0.4-4.1-1.1-5.4-2.3c-1.4-1.4-2-3.1-2-5.5c0-2.5,0.9-4.6,2.6-6.1     c1.7-1.5,4.2-2.3,7-2.3c3.8,0,6.6,1,8.9,3.2l0.2,0.2l-3.7,3.7L83,22.7c-1.6-1.5-3.6-1.8-5.3-1.8c-2.8,0-3.8,1.6-3.8,3.1     c0,0.7,0.2,1.3,0.7,1.7c0.5,0.5,1.4,0.8,2.3,1l3.2,0.5c2.4,0.3,4,1,5.3,2.1c1.4,1.4,2.2,3.3,2.2,5.9     C87.4,40.2,83.3,43.6,77.2,43.6L77.2,43.6z"></path>
		</g>
	</g>
	<path class="st1" d="M36.3,29.3c1.5-1,3-3,3-5.5c0-4.8-3.3-7.8-8.6-7.8H19.6v27.3h11.5c5.2,0,8.5-3.1,8.5-8   C39.6,31.8,37.7,30.1,36.3,29.3z M25.1,20.9h5.1c2.2,0,3.5,1.2,3.5,3.1c0,1.8-1.2,3.1-3.5,3.1h-5.1V20.9z M30.6,38.4h-5.5v-6.6h5.5   c2.4,0,3.5,1.5,3.5,3.3S32.9,38.4,30.6,38.4z"></path>
</g>
</svg>
