<?xml version="1.0" encoding="UTF-8" standalone="no"?><!DOCTYPE svg PUBLIC "-//W3C//DTD SVG 1.1//EN"
        "http://www.w3.org/Graphics/SVG/1.1/DTD/svg11.dtd">
<svg width="100px" height="115px" viewBox="0 0 155 178" version="1.1" xmlns="http://www.w3.org/2000/svg"
     xmlns:xlink="http://www.w3.org/1999/xlink" xml:space="preserve" xmlns:serif="http://www.serif.com/"
     style="fill-rule:evenodd;clip-rule:evenodd;stroke-linejoin:round;stroke-miterlimit:2;"><path d="M153.606,43.823l-75.215,-43.587c-0.541,-0.313 -1.207,-0.316 -1.747,-0.003l-75.628,43.453c-0.544,0.309 -0.878,0.887 -0.878,1.516l-0.138,65.428l0,21.959c0,0.625 0.334,1.2 0.875,1.516l75.341,43.44c0.54,0.31 1.209,0.31 1.746,0l75.588,-43.509c0.541,-0.313 0.878,-0.891 0.878,-1.516l0.05,-87.181c0,-0.625 -0.331,-1.203 -0.872,-1.516Z" style="fill:#fff;fill-rule:nonzero;"/>
    <rect x="1.75" y="88.445" width="150.931" height="22.219" style="fill:#5ac4be;fill-rule:nonzero;"/>
    <path d="M141.369,75.045c0,1.538 -1.372,2.769 -2.907,2.769c-1.537,0 -2.706,-1.231 -2.706,-2.769l0.003,-23.318c0,-1.535 1.169,-2.763 2.703,-2.763c1.535,0 2.91,1.228 2.91,2.763l-0.003,23.318Zm-17.169,-46.147l0,55.991l28.528,0l0,-39.55l-28.528,-16.441Zm-52.884,45.716c0,1.538 -1.338,2.781 -2.875,2.781c-1.535,0 -2.791,-1.343 -2.791,-2.878l0.003,-27.787c0,-1.538 1.253,-2.775 2.788,-2.775c1.537,0 2.878,1.228 2.878,2.762l-0.003,27.897Zm-5.641,-53.009c0,-1.535 1.234,-2.782 2.769,-2.782c1.456,0 2.74,1.069 2.862,2.488l0,10.919l-17.262,10.103l0,42.556l29.047,0l-0.004,-79.922l-5.575,-3.215l-23.474,13.518l0,18.622l11.64,-6.603l-0.003,-5.684Zm52.628,39.972l-11.787,0l0.003,12.618c0,1.538 -1.235,2.782 -2.772,2.782c-1.531,0 -2.769,-1.232 -2.769,-2.766l0,-42.828c0,-1.535 1.231,-2.481 2.766,-2.481c1.537,0 2.772,1.231 2.772,2.765l0,14.4l11.787,0l0,-20.49l-29.169,-17.013l-0.006,76.325l29.175,0l0,-23.312Zm-104.684,4.475l0,-14.666c0,-1.538 1.231,-2.781 2.765,-2.781c1.535,0 2.794,1.231 2.794,2.765l0,33.519l11.703,0l0.003,-43.412c0,-1.535 1.228,-2.779 2.763,-2.779c1.534,0 2.794,1.229 2.794,2.766l0.003,43.425l11.837,0l0,-66.562l-46.393,26.878l0,39.684l11.731,0l0,-18.837Zm-11.869,66.537l75.344,43.441l75.584,-43.507l0,-21.925l-150.928,0.038l0,21.953Z"
          style="fill:#007dc5;"/></svg>