<svg xmlns="http://www.w3.org/2000/svg" id="Marke" viewBox="0 0 114.201 69.04"><path d="M52.5,35.01c1.782,0,2.077-1.66,2.077-3.206s-.3-3.212-2.077-3.212-2.067,1.665-2.067,3.212.3,3.206,2.067,3.206m0,1.937A4.773,4.773,0,0,1,47.435,31.8,4.777,4.777,0,0,1,52.5,26.655,4.773,4.773,0,0,1,57.571,31.8,4.769,4.769,0,0,1,52.5,36.947m7.874-10V25.034l2.9-1.049v2.962h2.188v1.934H63.278v4.508c0,1.276.2,1.621,1.2,1.621.314,0,.622-.037.932-.055v1.7a10.573,10.573,0,0,1-2.283.292c-2.265,0-2.749-1.179-2.749-3.287V28.881H58.422V26.947ZM71.841,35.01c1.79,0,2.073-1.66,2.073-3.206s-.283-3.212-2.073-3.212c-1.771,0-2.065,1.665-2.065,3.212s.294,3.206,2.065,3.206m0,1.937A4.769,4.769,0,0,1,66.782,31.8a5.064,5.064,0,1,1,10.127,0,4.767,4.767,0,0,1-5.068,5.143M37.8,24.923h2.519c1.314.024,2.09.545,2.09,1.789s-.776,1.9-2.09,1.925H37.8Zm8.988,11.7L42.971,30.43a4.326,4.326,0,0,0,2.63-3.809c0-2.712-2.448-4.012-4.847-4.03H34.786V36.62h3.026v-5.7h1.945l3.493,5.7ZM54.085,0,90.709,36.624H87.691L52.867,1.791,18.18,36.624H0L36.629,0Z" fill="#fe0009"/><path d="M43.185,53.629H41.876l-2.19-6.964-2.134,6.964H36.21l-2.123-7.955h1.089l1.749,7.041,2.157-7.041h1.254l2.211,7.031,1.738-7.031H45.3Z" fill="#737378"/><path d="M46.4,46.654v-.98h1.079v.98Zm.056,6.975V48.073h.968v5.556Z" fill="#737378"/><path d="M52.914,53.629V50.548c0-.968-.109-1.8-1.287-1.8-1.2,0-1.529,1.089-1.529,2.112v2.773H49.13V49.5c0-.473-.023-1.111-.033-1.43h.957l.033.89a2.065,2.065,0,0,1,1.815-.957c1.452,0,1.981.8,1.981,2.168v3.455Z" fill="#737378"/><path d="M59.5,53.629l-.055-.847a1.977,1.977,0,0,1-1.782.945c-1.684,0-2.432-1.408-2.432-2.915,0-1.452.759-2.85,2.4-2.85a1.906,1.906,0,0,1,1.815.991V45.674h.968v6.337c0,.529,0,1.078.033,1.618Zm-1.716-4.984c-1.2,0-1.541,1.188-1.541,2.19,0,1.078.407,2.188,1.661,2.188,1.2,0,1.552-1.166,1.552-2.167C59.456,49.8,59.016,48.645,57.784,48.645Z" fill="#737378"/><path d="M64.517,53.75a2.651,2.651,0,0,1-2.74-2.927,2.643,2.643,0,0,1,2.75-2.871,2.59,2.59,0,0,1,2.718,2.871A2.688,2.688,0,0,1,64.517,53.75Zm0-5.1c-1.244,0-1.716,1.089-1.716,2.178s.462,2.266,1.716,2.266c1.232,0,1.716-1.21,1.716-2.266C66.233,49.734,65.76,48.645,64.517,48.645Z" fill="#737378"/><path d="M74.847,53.629h-.958l-1.551-4.6-1.584,4.6h-.99l-1.97-5.556h1.078L70.3,52.628l1.529-4.555h1.111l1.5,4.5,1.419-4.5h.968Z" fill="#737378"/><path d="M85.494,49.756v3.873h-2.74c-1.419,0-3.124-.4-3.124-2.234a2.017,2.017,0,0,1,1.87-2.046,1.665,1.665,0,0,1-1.507-1.782c0-1.452,1.452-2.058,2.629-2.058a9.562,9.562,0,0,1,1.464.143V46.5a5.1,5.1,0,0,0-1.277-.2c-.847,0-1.793.33-1.793,1.375,0,1.189,1.3,1.343,2.168,1.343h1.331V47.292h.979v1.727h1.44v.737Zm-.979.011H83.15c-1.023,0-2.453.121-2.453,1.518,0,1.464,1.607,1.541,2.652,1.541h1.166Z" fill="#737378"/><path d="M93.522,53.585c-.44.044-.9.044-1.342.044H90.266V45.674H92.6a6.2,6.2,0,0,1,2.2.33c1.518.627,2.013,2,2.013,3.62C96.811,51.8,95.8,53.353,93.522,53.585ZM94.6,46.94a3.488,3.488,0,0,0-2.069-.474H91.3v6.36h1.43c2.167,0,3-1.122,3-3.2A3.154,3.154,0,0,0,94.6,46.94Z" fill="#737378"/><path d="M100.644,53.75a2.651,2.651,0,0,1-2.739-2.927,2.643,2.643,0,0,1,2.75-2.871,2.59,2.59,0,0,1,2.718,2.871A2.688,2.688,0,0,1,100.644,53.75Zm0-5.1c-1.243,0-1.715,1.089-1.715,2.178s.462,2.266,1.715,2.266c1.233,0,1.717-1.21,1.717-2.266C102.361,49.734,101.888,48.645,100.644,48.645Z" fill="#737378"/><path d="M107.148,53.75a2.651,2.651,0,0,1-2.739-2.927,2.643,2.643,0,0,1,2.75-2.871,2.59,2.59,0,0,1,2.718,2.871A2.688,2.688,0,0,1,107.148,53.75Zm0-5.1c-1.243,0-1.715,1.089-1.715,2.178s.461,2.266,1.715,2.266c1.233,0,1.717-1.21,1.717-2.266C108.865,49.734,108.392,48.645,107.148,48.645Z" fill="#737378"/><path d="M113.728,48.931c-1.144,0-1.518.649-1.518,1.705v2.993h-.968V49.7c0-.539-.011-1.089-.033-1.628h.946l.044.89a1.81,1.81,0,0,1,1.694-.923,2.493,2.493,0,0,1,.308.022v.913A3.258,3.258,0,0,0,113.728,48.931Z" fill="#737378"/><path d="M37.552,59.689v7.14H36.529v-7.14H34v-.814h6.095v.814Z" fill="#737378"/><path d="M40.808,64.232v.11A1.74,1.74,0,0,0,42.48,66.3a1.372,1.372,0,0,0,1.43-1.264h.925A2.222,2.222,0,0,1,42.4,66.95c-1.727,0-2.563-1.155-2.563-2.806s.836-2.971,2.64-2.971c1.86,0,2.387,1.442,2.387,3.059Zm1.639-2.4c-1.023,0-1.529.837-1.617,1.76h3.08C43.922,62.681,43.459,61.834,42.447,61.834Z" fill="#737378"/><path d="M48.6,66.95a2.56,2.56,0,0,1-2.7-2.839,2.684,2.684,0,0,1,2.75-2.992,2.038,2.038,0,0,1,2.267,1.947h-.946A1.234,1.234,0,0,0,48.654,61.8c-1.308,0-1.726,1.144-1.726,2.266,0,1.057.451,2.223,1.682,2.223A1.323,1.323,0,0,0,50,64.959h.913l.033.01A2.105,2.105,0,0,1,48.6,66.95Z" fill="#737378"/><path d="M56.026,66.829v-3.08c0-.969-.11-1.816-1.287-1.816-1.122,0-1.529.946-1.529,1.958v2.938h-.968V58.875h.968v3.267A2.055,2.055,0,0,1,55,61.2C56.467,61.2,57,62,57,63.375v3.454Z" fill="#737378"/><path d="M62.455,66.829v-3.08c0-.969-.109-1.8-1.287-1.8-1.2,0-1.529,1.089-1.529,2.112v2.773h-.968V62.7c0-.473-.023-1.111-.033-1.43H59.6l.033.891a2.063,2.063,0,0,1,1.815-.957c1.452,0,1.981.8,1.981,2.168v3.454Z" fill="#737378"/><path d="M67.493,66.95a2.9,2.9,0,0,1,.011-5.8,2.59,2.59,0,0,1,2.718,2.871A2.687,2.687,0,0,1,67.493,66.95Zm0-5.105c-1.243,0-1.716,1.089-1.716,2.178s.462,2.267,1.716,2.267c1.233,0,1.717-1.21,1.717-2.267C69.21,62.934,68.736,61.845,67.493,61.845Z" fill="#737378"/><path d="M71.6,66.829V58.875h.967v7.954Z" fill="#737378"/><path d="M76.675,66.95a2.9,2.9,0,0,1,.01-5.8A2.59,2.59,0,0,1,79.4,64.023,2.687,2.687,0,0,1,76.675,66.95Zm0-5.105c-1.243,0-1.716,1.089-1.716,2.178s.462,2.267,1.716,2.267c1.232,0,1.717-1.21,1.717-2.267C78.392,62.934,77.918,61.845,76.675,61.845Z" fill="#737378"/><path d="M85.687,63.2v2.057c0,2.135-.1,3.785-2.619,3.785-1.122,0-2.3-.341-2.3-1.7h.947c0,.793.66,1.034,1.342,1.034,1.166,0,1.551-.648,1.639-1.671.022-.3.022-.606.022-.913a2.059,2.059,0,0,1-1.837.979c-1.661,0-2.443-1.266-2.443-2.8,0-1.474.815-2.806,2.432-2.806a2.031,2.031,0,0,1,1.881,1.046v-.946h.979C85.687,61.911,85.687,62.56,85.687,63.2Zm-2.574-1.353c-1.221,0-1.639,1.122-1.639,2.167s.44,2.113,1.627,2.113c1.233,0,1.629-1.145,1.629-2.2C84.73,62.945,84.235,61.845,83.113,61.845Z" fill="#737378"/><path d="M89.193,68.919h-.967l.913-2.1-2.367-5.545h1.1l1.749,4.544,1.738-4.544h.98Z" fill="#737378"/></svg>