<?xml version="1.0" encoding="utf-8"?>
<!-- Generator: Adobe Illustrator 23.0.2, SVG Export Plug-In . SVG Version: 6.00 Build 0)  -->
<svg version="1.1" id="Layer_1" xmlns="http://www.w3.org/2000/svg" xmlns:xlink="http://www.w3.org/1999/xlink" x="0px" y="0px"
	 viewBox="0 0 556.6 167.9" style="enable-background:new 0 0 556.6 167.9;" xml:space="preserve">
<style type="text/css">
	.st0{fill:#163872;}
	.st1{fill:#FFFFFF;}
</style>
<rect x="12.7" y="9.4" class="st0" width="220.7" height="150.1"/>
<rect x="104.1" y="15.9" class="st1" width="16.2" height="64.4"/>
<polygon class="st1" points="49.7,88.5 49.7,112.7 35.4,112.7 35.4,88.5 19.1,88.5 19.1,152.9 35.4,152.9 35.4,128.9 49.7,128.9 
	49.7,152.9 66,152.9 66,88.5 "/>
<polygon class="st1" points="128,80.3 128,15.9 143.9,15.9 158.7,52.4 158.7,15.9 174.5,15.9 174.5,80.3 158.7,80.3 143.9,43.5 
	143.8,80.3 "/>
<polygon class="st1" points="210.2,15.7 228.2,15.7 214.8,42.6 228.2,80.3 211.6,80.3 201.8,52.3 198.3,60.9 198.1,80.3 182.2,80.3 
	182.2,15.7 198.3,15.7 198.1,42.7 "/>
<path class="st1" d="M97,86.9c23.3,0,23.3,20.8,23.3,20.8v45.1h-15.9V137H89.5v15.9H73.6v-45.1C73.6,107.7,73.7,86.9,97,86.9
	L97,86.9 M104.5,108.7c0-4-3.5-7.5-7.5-7.5c-4,0-7.4,3.5-7.4,7.5v12h14.9V108.7z M158.7,131.1c0,4-3.3,7.5-7.4,7.5
	c-4,0-7.5-3.4-7.5-7.5V88.5h-15.8v44.9c0,0,0.1,20.8,23.2,20.8h0c23.1,0,23.2-20.8,23.2-20.8V88.5h-15.8V131.1z M180,137.5v15.4
	h29.7c0,0,18.6,0.7,18.6-19.5c0-20.3-17.9-20.5-17.9-20.5h-8.9c-2.6,0-4.9-2-4.9-4.6c0-2.6,2.1-4.7,4.7-4.7h25.2V88.5h-26.2
	c0,0-20.3-0.8-20.3,18.8c0,17.3,14.3,20.7,21,20.7l6.4,0c2.6,0,4.9,2.1,4.9,4.7c0,2.6-2.1,4.8-4.7,4.8L180,137.5z M97.1,15.9H79.3
	l0,44.2c0,3.4-2.8,6.1-6.1,6.1c-3.4,0-6.1-2.7-6.1-6.1l0-44.2H49.2l0,44.2c0,3.4-2.8,6.1-6.1,6.1c-3.4,0-6.1-2.7-6.1-6.1l0-44.2
	H19.1v45.6c0,11.4,7.6,20.8,23.3,20.8c6,0,12.3-1.9,15.6-6.5c3.4,4.6,9.6,6.5,15.6,6.5c15.7,0,23.3-9.4,23.3-20.8V15.9z M120.4,15.9
	h-16.2v64.4h16.2V15.9z M49.7,88.5v24.1l-14.3,0V88.5H19.1v64.3h16.2v-24l14.3,0v24H66V88.5H49.7z M143.8,80.3l0-36.8l14.8,36.8
	h15.8V15.9h-15.8v36.6l-14.8-36.6H128v64.4H143.8z M198.1,42.7l0.1-27h-16.1v64.5h16l0.1-19.4l3.6-8.5l9.7,28h16.6l-13.4-37.6
	l13.4-26.9l-18,0L198.1,42.7z"/>
</svg>
