<?xml version="1.0" encoding="UTF-8"?>
<svg xmlns="http://www.w3.org/2000/svg" id="Ebene_1" data-name="Ebene 1" viewBox="0 0 90.71 64.48">
  <defs>
    <style>.cls-1{fill:#00305e;}</style>
  </defs>
  <title>gu_dach_blau</title>
  <path class="cls-1" d="M79,1.48V31.22a5.17,5.17,0,0,1-10.33,0l-.11-1.14V1.48H57V19.3H49.14a33.87,33.87,0,0,1,.45,4.77,22.62,22.62,0,0,1-.45,4.77H57v2.5a16.8,16.8,0,0,0,33.6-.11V1.48" transform="translate(0.01 0)"></path>
  <path class="cls-1" d="M46.87,19.19H24.05a4.77,4.77,0,0,0,0,9.54H34.5a11.5,11.5,0,0,1-10.9,7.49c-6.81,0-11.81-5.56-11.81-12.26S16.9,11.69,23.6,11.69A11.5,11.5,0,0,1,33.36,17l9.42-7A23.55,23.55,0,0,0,0,24a23.67,23.67,0,1,0,47.34,0,22.62,22.62,0,0,0-.45-4.77" transform="translate(0.01 0)"></path>
  <path class="cls-1" d="M1.46,60.62a3.82,3.82,0,0,1,4.09-3.86,3.52,3.52,0,0,1,2.38.68l-.68,1.14A2.89,2.89,0,0,0,5.44,58a2.24,2.24,0,0,0-2.38,2.5c0,1.48.68,2.61,2.27,2.61a2.42,2.42,0,0,0,1.36-.34V61.3H5.32V60.06H8.16v3.52a5.12,5.12,0,0,1-2.84.68,3.58,3.58,0,0,1-3.86-3.63" transform="translate(0.01 0)"></path>
  <path class="cls-1" d="M9.86,56.88h2.5c1.7,0,2.72.79,2.72,2.16a2,2,0,0,1-1.7,2h0c.23.11.45.45.91,1l1.48,2.16h-1.7L12.7,62.1c-.57-.91-.68-.91-1-.91h-.11v3.07H9.86m2.5-4.09c.79,0,1.25-.34,1.25-1s-.34-1-1.25-1h-.79v2Z" transform="translate(0.01 0)"></path>
  <polyline class="cls-1" points="16.8 56.88 21.12 56.88 21.12 58.13 18.39 58.13 18.39 59.83 20.78 59.83 20.78 61.08 18.39 61.08 18.39 63.01 21.23 63.01 21.23 64.26 16.8 64.26"></polyline>
  <polyline class="cls-1" points="24.07 58.13 22.02 58.13 22.02 56.88 27.7 56.88 27.7 58.13 25.66 58.13 25.66 64.26 24.07 64.26"></polyline>
  <path class="cls-1" d="M28.14,63.69l.68-1.14a2.37,2.37,0,0,0,1.59.57c.79,0,1.14-.34,1.14-.91s-.79-.79-1.7-1.25a2.36,2.36,0,0,1-1.59-2.27,2.13,2.13,0,0,1,2.38-2,3.5,3.5,0,0,1,2.16.57l-.68,1.14a3.21,3.21,0,0,0-1.48-.45c-.57,0-1,.23-1,.79s.57.79,1.36,1.14c1,.45,1.93.91,1.93,2.27s-1,2.16-2.61,2.16a3.28,3.28,0,0,1-2.16-.57" transform="translate(0.01 0)"></path>
  <path class="cls-1" d="M34,60.62a3.69,3.69,0,0,1,3.86-3.86,4.17,4.17,0,0,1,2.27.57l-.68,1.14A3.28,3.28,0,0,0,37.9,58a2.25,2.25,0,0,0-2.16,2.5c0,1.36.68,2.61,2.16,2.61a2.55,2.55,0,0,0,1.7-.57l.68,1.14a3.64,3.64,0,0,1-2.38.79A3.82,3.82,0,0,1,34,60.62" transform="translate(0.01 0)"></path>
  <polyline class="cls-1" points="41.44 56.88 43.03 56.88 43.03 59.83 46.32 59.83 46.32 56.88 47.91 56.88 47.91 64.26 46.32 64.26 46.32 61.08 43.03 61.08 43.03 64.26 41.44 64.26"></polyline>
  <rect class="cls-1" x="49.38" y="60.51" width="2.5" height="1.25"></rect>
  <path class="cls-1" d="M53.46,61.42V56.88H55V61.3c0,1.25.45,1.82,1.59,1.82s1.59-.68,1.59-1.7V56.88H59.7V61.3c0,2-1,3.18-3.07,3.18s-3.18-1.14-3.18-3.07" transform="translate(0.01 0)"></path>
  <path class="cls-1" d="M61.4,56.88H63l2.72,3.86c.45.68.68,1.14.79,1.25h0V56.88H68v7.38H66.51l-2.84-4.09A9,9,0,0,1,63,59h0v5.22H61.52" transform="translate(0.01 0)"></path>
  <rect class="cls-1" x="69.82" y="56.88" width="1.59" height="7.38"></rect>
  <polyline class="cls-1" points="74.7 58.13 72.66 58.13 72.66 56.88 78.33 56.88 78.33 58.13 76.29 58.13 76.29 64.26 74.7 64.26"></polyline>
  <path class="cls-1" d="M81,56.88h1.48l3,7.38H83.66l-.45-1.36h-3l-.45,1.36H78.21m4.54-2.61-.68-1.82a6.06,6.06,0,0,0-.45-1.25h0c0,.23-.23.68-.34,1.25l-.68,1.82Z" transform="translate(0.01 0)"></path>
  <path class="cls-1" d="M85.93,63.69l.68-1.14a2.37,2.37,0,0,0,1.59.57c.79,0,1.14-.34,1.14-.91s-.79-.79-1.7-1.25A2.36,2.36,0,0,1,86,58.69a2.13,2.13,0,0,1,2.38-2,3.5,3.5,0,0,1,2.16.57l-.68,1.14a3.21,3.21,0,0,0-1.48-.45c-.57,0-1,.23-1,.79s.57.79,1.36,1.14c1,.45,1.93.91,1.93,2.27s-1,2.16-2.61,2.16a3.28,3.28,0,0,1-2.16-.57" transform="translate(0.01 0)"></path>
</svg>
