<?xml version="1.0" encoding="UTF-8"?>
<!-- Generator: Adobe Illustrator 21.0.0, SVG Export Plug-In . SVG Version: 6.00 Build 0)  -->
<svg xmlns="http://www.w3.org/2000/svg" xmlns:xlink="http://www.w3.org/1999/xlink" version="1.1" id="Ebene_1" x="0px" y="0px" viewBox="0 0 85 55" style="enable-background:new 0 0 85 55;" xml:space="preserve">
<style type="text/css">
	.st0{fill:#0069B2;}
	.st1{fill:#FFFFFF;}
</style>
<g>
	<path class="st0" d="M82.6,44.7c0,1.9-1.6,3.5-3.5,3.5H5.8c-1.9,0-3.5-1.6-3.5-3.5V10.2c0-1.9,1.6-3.5,3.5-3.5h73.3   c1.9,0,3.5,1.6,3.5,3.5C82.6,10.2,82.6,44.7,82.6,44.7z"></path>
	<g>
		<path class="st1" d="M62.2,13.5v18.2v0.8c0,1.8-1.5,3.2-3.3,3.2s-3.2-1.4-3.2-3.2l-0.1-0.8V13.5h-7.4v11.3h-4.8c0.2,1,0.3,2,0.3,3    s-0.1,2-0.3,3h4.8v0.9v0.8c0,5.9,4.8,10.6,10.7,10.6c5.9,0,10.7-4.8,10.7-10.6v-0.8V13.5H62.2z"></path>
		<path class="st1" d="M41.7,24.8H37h-3.1h-6.7l0,0c-1.7,0-3,1.4-3,3c0,1.7,1.4,3,3,3c0.1,0,0.1,0,0.2,0h6.5    c-1.1,2.8-3.7,4.8-6.9,4.8c-4.3,0-7.5-3.5-7.5-7.8S22.7,20,27,20c2.7,0,4.9,1.4,6.2,3.4l6-4.5c-2.7-3.8-7.2-6.3-12.2-6.3    c-8.4,0-15.1,6.8-15.1,15.2S18.5,43,27,43c8.4,0,15.1-6.8,15.1-15.2C42,26.8,41.9,25.7,41.7,24.8z"></path>
	</g>
</g>
</svg>
